# xmcd
#
# Track frame offsets: 
#        150
#        25567
#        50392
#        77000
#        99257
#        126420
#
# Disc length: 2094 seconds
#
# Revision: 2
# Processed by: cddbd v1.5.2PL0 Copyright (c) Steve Scherf et al.
# Submitted via: ExactAudioCopyFreeDBPlugin 1.0
#
DISCID=3d082c06
DTITLE=Laws, Hubert - Chicago Theme, The
DYEAR=1974
DGENRE=Jazz
TTITLE0=The Chicago Theme
TTITLE1=Midnight At The Oasis
TTITLE2=You Make Me Feel Brand New
TTITLE3=Going Home
TTITLE4=I Had A Dream
TTITLE5=Inflation Chaser
EXTD=YEAR: 1974
EXTT0=
EXTT1=
EXTT2=
EXTT3=
EXTT4=
EXTT5=
PLAYORDER=
